<?xml version="1.0" standalone="no"?><!DOCTYPE svg PUBLIC "-//W3C//DTD SVG 1.1//EN" "http://www.w3.org/Graphics/SVG/1.1/DTD/svg11.dtd"><svg t="1664601328227" class="icon" viewBox="0 0 1024 1024" version="1.1" xmlns="http://www.w3.org/2000/svg" p-id="8164" xmlns:xlink="http://www.w3.org/1999/xlink" width="200" height="200"><path d="M789.248 35.108c0-23.436-18.876-38.874-41.874-34.28L191.314 120.042c-22.998 4.594-41.81 27.562-41.81 51.03v810.752c0 23.438 18.562 37.686 41.186 31.624L748 864.518c22.686-6.062 41.248-30.218 41.248-53.656V35.108z" fill="#D770AD" p-id="8165"></path><path d="M874.496 981.358c0 23.438-19.186 42.624-42.624 42.624H192.158c-23.466 0-42.654-19.186-42.654-42.624V171.074c0-23.468 19.188-42.656 42.654-42.656h639.714c23.438 0 42.624 19.186 42.624 42.656v810.284z" fill="#EC87C0" p-id="8166"></path><path d="M601.068 405.472c-34.844 0-66.326 14.28-88.904 37.342-22.594-23.062-54.06-37.342-88.888-37.342-68.73 0-124.448 55.716-124.448 124.432 0 142.212 213.336 266.646 213.336 266.646s213.338-124.434 213.338-266.646c0-68.716-55.75-124.432-124.434-124.432z" fill="#F5F7FA" p-id="8167"></path><path d="M601.068 405.472a125.78 125.78 0 0 0-21.344 1.812c58.53 10.124 103.09 61.154 103.09 122.622 0 114.372-137.964 217.242-191.994 253.146 13.156 8.75 21.344 13.5 21.344 13.5s213.338-124.434 213.338-266.646c0-68.718-55.75-124.434-124.434-124.434z" opacity=".1" p-id="8168"></path></svg>